<svg xmlns="http://www.w3.org/2000/svg" viewBox="0 0 48 48"><defs><style>.cls-1{fill:#9fdbf3;}.cls-2{fill:#b2e5fb;}.cls-3{fill:#edb996;}.cls-4{fill:#f6ccaf;}.cls-5{fill:#dad7e5;}.cls-6{fill:#edebf2;}.cls-7{fill:#c6c3d8;}</style></defs><title>monitoring product</title><g id="monitoring_product" data-name="monitoring product"><path class="cls-1" d="M47,6V30H1V6A4,4,0,0,1,4.52,2C4.89,2,2.37,2,43,2A4,4,0,0,1,47,6Z"/><path class="cls-2" d="M47,6V28H28A24,24,0,0,1,4,4a4.09,4.09,0,0,1,.35-1.64L5,2H43A4,4,0,0,1,47,6Z"/><rect class="cls-3" x="7" y="7" width="10" height="10"/><path class="cls-4" d="M17,7c0,8.55-.1,8,0,8A8,8,0,0,1,9,7Z"/><path class="cls-5" d="M47,30c0,1.9.13,2.83-.52,4A4,4,0,0,1,43,36H5a4,4,0,0,1-4-4V30Z"/><path class="cls-6" d="M47,30c0,1.9.13,2.83-.52,4C46.11,34,48.63,34,8,34a4,4,0,0,1-4-4Z"/><rect class="cls-7" x="18" y="36" width="12" height="10"/><path class="cls-5" d="M30,38v8H20a8,8,0,0,1,8-8Z"/><path d="M17,5H7A1,1,0,0,0,6,6V16a1,1,0,0,0,1,1H17a1,1,0,0,0,1-1V6A1,1,0,0,0,17,5ZM16,15H8V7h3V8a1,1,0,0,0,2,0V7h3Z"/><path d="M17,19H7a1,1,0,0,0,0,2H17A1,1,0,0,0,17,19Z"/><path d="M15,23H7a1,1,0,0,0,0,2h8A1,1,0,0,0,15,23Z"/><path d="M23,14c.43,0,.14.11,6-3.8,5.83,3.89,5.81,4.13,6.55,3.63l6-4a1,1,0,0,0-1.1-1.66L35,11.8c-5.83-3.89-5.81-4.13-6.55-3.63l-6,4A1,1,0,0,0,23,14Z"/><path d="M22,17v6a1,1,0,0,0,2,0V17A1,1,0,0,0,22,17Z"/><path d="M28,14v9a1,1,0,0,0,2,0V14A1,1,0,0,0,28,14Z"/><path d="M34,17v6a1,1,0,0,0,2,0V17A1,1,0,0,0,34,17Z"/><path d="M40,14v9a1,1,0,0,0,2,0V14A1,1,0,0,0,40,14Z"/><path d="M43,1H5A5,5,0,0,0,0,6V32a5,5,0,0,0,5,5H17v8H15a1,1,0,0,0,0,2H33a1,1,0,0,0,0-2H31V37H43a5,5,0,0,0,5-5V6A5,5,0,0,0,43,1ZM2,6A3,3,0,0,1,5,3H43a3,3,0,0,1,3,3V29H2ZM29,45H19V37H29ZM46,32a3,3,0,0,1-3,3H5a3,3,0,0,1-3-3V31H46Z"/><path d="M8,34a1,1,0,0,0,0-2A1,1,0,0,0,8,34Z"/></g></svg>