<?xml version="1.0" encoding="utf-8"?>
<!-- Generator: Adobe Illustrator 21.0.0, SVG Export Plug-In . SVG Version: 6.00 Build 0)  -->
<svg version="1.1" id="Layer_1" xmlns="http://www.w3.org/2000/svg" xmlns:xlink="http://www.w3.org/1999/xlink" x="0px" y="0px"
	 viewBox="0 0 64 64" style="enable-background:new 0 0 64 64;" xml:space="preserve">
<style type="text/css">
	.st0{fill:#039BE5;stroke:#0277BD;stroke-linecap:round;stroke-linejoin:round;stroke-miterlimit:10;}
	.st1{fill:#81D4FA;stroke:#0277BD;stroke-linecap:round;stroke-linejoin:round;stroke-miterlimit:10;}
	.st2{fill:#EC407A;stroke:#0277BD;stroke-linecap:round;stroke-linejoin:round;stroke-miterlimit:10;}
	.st3{fill:#FFA726;stroke:#0277BD;stroke-linecap:round;stroke-linejoin:round;stroke-miterlimit:10;}
	.st4{fill:#80CBC4;stroke:#0277BD;stroke-linecap:round;stroke-linejoin:round;stroke-miterlimit:10;}
	.st5{fill:none;stroke:#F48FB1;stroke-linecap:round;stroke-linejoin:round;stroke-miterlimit:10;}
	.st6{fill:none;stroke:#FFCC80;stroke-linecap:round;stroke-linejoin:round;stroke-miterlimit:10;}
	.st7{fill:none;stroke:#E0F2F1;stroke-linecap:round;stroke-linejoin:round;stroke-miterlimit:10;}
	.st8{fill:none;stroke:#26A69A;stroke-linecap:round;stroke-linejoin:round;stroke-miterlimit:10;}
	.st9{fill:none;stroke:#F57C00;stroke-linecap:round;stroke-linejoin:round;stroke-miterlimit:10;}
	.st10{fill:none;stroke:#D81B60;stroke-linecap:round;stroke-linejoin:round;stroke-miterlimit:10;}
	.st11{fill:#EEEEEE;stroke:#0277BD;stroke-linecap:round;stroke-linejoin:round;stroke-miterlimit:10;}
	.st12{fill:none;stroke:#BDBDBD;stroke-linecap:round;stroke-linejoin:round;stroke-miterlimit:10;}
	.st13{fill:none;stroke:#E1F5FE;stroke-linecap:round;stroke-linejoin:round;stroke-miterlimit:10;}
	.st14{fill:none;stroke:#FFFFFF;stroke-linecap:round;stroke-linejoin:round;stroke-miterlimit:10;}
	.st15{fill:none;stroke:#29B6F6;stroke-linecap:round;stroke-linejoin:round;stroke-miterlimit:10;}
	.st16{fill:none;stroke:#4FC3F7;stroke-linecap:round;stroke-linejoin:round;stroke-miterlimit:10;}
	.st17{fill:none;stroke:#0277BD;stroke-linecap:round;stroke-linejoin:round;stroke-miterlimit:10;}
</style>
<g id="Master_Data">
	<g>
		<rect x="2.5" y="16" class="st11" width="41" height="20"/>
		<path class="st1" d="M42.5,16h-39c-1.7,0-3-1.3-3-3V5c0-1.7,1.3-3,3-3h39c1.7,0,3,1.3,3,3v8C45.5,14.7,44.2,16,42.5,16z"/>
		<circle class="st3" cx="8" cy="9" r="2.5"/>
		<path class="st0" d="M39.5,10.5h-16c-0.6,0-1-0.4-1-1v-1c0-0.6,0.4-1,1-1h16c0.6,0,1,0.4,1,1v1C40.5,10.1,40.1,10.5,39.5,10.5z"/>
		<path class="st1" d="M42.5,33h-39c-1.7,0-3-1.3-3-3v-8c0-1.7,1.3-3,3-3h39c1.7,0,3,1.3,3,3v8C45.5,31.7,44.2,33,42.5,33z"/>
		<circle class="st3" cx="8" cy="26" r="2.5"/>
		<path class="st0" d="M39.5,27.5h-16c-0.6,0-1-0.4-1-1v-1c0-0.6,0.4-1,1-1h16c0.6,0,1,0.4,1,1v1C40.5,27.1,40.1,27.5,39.5,27.5z"/>
		<path class="st1" d="M42.5,50h-39c-1.7,0-3-1.3-3-3v-8c0-1.7,1.3-3,3-3h39c1.7,0,3,1.3,3,3v8C45.5,48.7,44.2,50,42.5,50z"/>
		<circle class="st3" cx="8" cy="43" r="2.5"/>
		<path class="st0" d="M39.5,44.5h-16c-0.6,0-1-0.4-1-1v-1c0-0.6,0.4-1,1-1h16c0.6,0,1,0.4,1,1v1C40.5,44.1,40.1,44.5,39.5,44.5z"/>
		<line class="st13" x1="3.5" y1="4" x2="42.5" y2="4"/>
		<line class="st15" x1="3.5" y1="14" x2="42.5" y2="14"/>
		<line class="st13" x1="3.5" y1="21" x2="42.5" y2="21"/>
		<line class="st15" x1="3.5" y1="31" x2="42.5" y2="31"/>
		<line class="st13" x1="3.5" y1="38" x2="42.5" y2="38"/>
		<line class="st15" x1="3.5" y1="48" x2="42.5" y2="48"/>
		<path class="st11" d="M60.5,62h-30c-1.7,0-3-1.3-3-3V35c0-1.7,1.3-3,3-3h30c1.7,0,3,1.3,3,3v24C63.5,60.7,62.2,62,60.5,62z"/>
		<path class="st2" d="M60.5,32h-30c-1.7,0-3,1.3-3,3v3h36v-3C63.5,33.3,62.2,32,60.5,32z"/>
		<g>
			<path class="st17" d="M35.5,48L35.5,48c-1.1,0-2-0.9-2-2v-2c0-1.1,0.9-2,2-2h0c1.1,0,2,0.9,2,2v2C37.5,47.1,36.6,48,35.5,48z"/>
			<polyline class="st17" points="40.5,48 40.5,42 39,42 			"/>
			<path class="st17" d="M45.5,48L45.5,48c-1.1,0-2-0.9-2-2v-2c0-1.1,0.9-2,2-2h0c1.1,0,2,0.9,2,2v2C47.5,47.1,46.6,48,45.5,48z"/>
			<path class="st17" d="M55.5,48L55.5,48c-1.1,0-2-0.9-2-2v-2c0-1.1,0.9-2,2-2h0c1.1,0,2,0.9,2,2v2C57.5,47.1,56.6,48,55.5,48z"/>
			<polyline class="st17" points="50.5,48 50.5,42 49,42 			"/>
		</g>
		<path class="st17" d="M40.5,57L40.5,57c-1.1,0-2-0.9-2-2v-2c0-1.1,0.9-2,2-2h0c1.1,0,2,0.9,2,2v2C42.5,56.1,41.6,57,40.5,57z"/>
		<polyline class="st17" points="35.5,57 35.5,51 34,51 		"/>
		<polyline class="st17" points="45.5,57 45.5,51 44,51 		"/>
		<path class="st17" d="M50.5,57L50.5,57c-1.1,0-2-0.9-2-2v-2c0-1.1,0.9-2,2-2h0c1.1,0,2,0.9,2,2v2C52.5,56.1,51.6,57,50.5,57z"/>
		<polyline class="st17" points="55.5,57 55.5,51 54,51 		"/>
		<line class="st5" x1="60.5" y1="34" x2="30.5" y2="34"/>
		<line class="st12" x1="60.5" y1="60" x2="30.5" y2="60"/>
	</g>
</g>
</svg>
